<svg width="20" height="20" viewBox="0 0 20 20" fill="none" xmlns="http://www.w3.org/2000/svg">
<path fill-rule="evenodd" clip-rule="evenodd" d="M20 5.83964C20 5.59759 19.9395 5.35553 19.758 5.17399L14.826 0.242058C14.6445 0.0605148 14.4024 0 14.1906 0H14.1604H1.66415C0.756431 0 0 0.756431 0 1.66415V18.3359C0 19.2436 0.756431 20 1.66415 20H18.3359C19.2436 20 20 19.2436 20 18.3359V5.83964ZM7.50379 1.66415H12.4962V6.68685H7.50379V1.66415ZM14.1906 18.3661H5.83964V12.5265H14.1906V18.3661ZM18.3661 18.3661H15.8548V12.5265C15.8548 11.6188 15.0984 10.8623 14.1906 10.8623H5.83964C4.93193 10.8623 4.1755 11.6188 4.1755 12.5265V18.3661H1.66415V1.66415H5.83964V6.68685C5.83964 7.59456 6.59607 8.35099 7.50379 8.35099H12.4962C13.404 8.35099 14.1604 7.59456 14.1604 6.68685V2.05749L18.3359 6.23299V18.3661H18.3661Z" fill="white"/>
</svg>
