<svg width="22" height="26" viewBox="0 0 22 26" fill="none" xmlns="http://www.w3.org/2000/svg">
<path d="M19.2312 25.6235H2.11619C1.64255 25.6242 1.18386 25.4466 0.820792 25.1219C0.457727 24.7972 0.213544 24.3463 0.131192 23.8485C-0.183187 22.141 0.0715457 20.3699 0.851308 18.8418C1.63107 17.3136 2.8868 16.1245 4.40119 15.4802C6.36557 14.7285 8.44061 14.36 10.5272 14.3925H10.6272H10.7112H10.8112C12.921 14.3544 15.0194 14.7314 17.0012 15.5047C18.5041 16.1542 19.7476 17.3432 20.5171 18.8667C21.2865 20.3901 21.5338 22.1523 21.2162 23.8495C21.134 24.3474 20.8898 24.7983 20.5267 25.1228C20.1636 25.4473 19.7048 25.6246 19.2312 25.6235ZM2.53119 22.9551H18.8152C18.9183 21.919 18.7067 20.8749 18.2116 19.977C17.7164 19.0791 16.9639 18.3749 16.0652 17.9682C14.3634 17.3298 12.5688 17.0194 10.7652 17.0514H10.6902H10.6312C8.83163 17.015 7.04017 17.3178 5.33919 17.9458C4.42824 18.3482 3.66314 19.0535 3.15747 19.9568C2.6518 20.8602 2.43253 21.9135 2.53219 22.9604L2.53119 22.9551Z" fill="#E6E6E6"/>
<path d="M10.674 12.3304C9.53157 12.3304 8.41484 11.9688 7.46498 11.2914C6.51512 10.6139 5.7748 9.65106 5.33762 8.52451C4.90045 7.39797 4.78607 6.15836 5.00894 4.96243C5.2318 3.7665 5.78191 2.66796 6.5897 1.80575C7.39749 0.943529 8.42668 0.356351 9.54711 0.118465C10.6675 -0.11942 11.8289 0.00267135 12.8843 0.4693C13.9398 0.935929 14.8418 1.72614 15.4765 2.74C16.1112 3.75386 16.4499 4.94584 16.4499 6.1652C16.4484 7.79979 15.8393 9.36695 14.7564 10.5228C13.6736 11.6786 12.2054 12.3287 10.674 12.3304ZM10.674 2.66419C10.0252 2.66419 9.39107 2.86952 8.85168 3.25421C8.31229 3.63891 7.89188 4.18569 7.64363 4.82542C7.39537 5.46515 7.33042 6.16908 7.45698 6.84821C7.58354 7.52734 7.89592 8.15116 8.35464 8.64079C8.81336 9.13041 9.3978 9.46385 10.0341 9.59894C10.6703 9.73403 11.3298 9.66469 11.9292 9.39971C12.5285 9.13473 13.0408 8.68599 13.4012 8.11026C13.7616 7.53452 13.954 6.85763 13.954 6.1652C13.9529 5.23702 13.607 4.34718 12.9921 3.69086C12.3772 3.03453 11.5435 2.66532 10.674 2.66419Z" fill="#E6E6E6"/>
</svg>
