<svg width="26" height="26" viewBox="0 0 26 26" fill="none" xmlns="http://www.w3.org/2000/svg">
<path d="M0.34419 14.5031C0.0793938 14.9011 -0.0384153 15.379 0.0110291 15.8545C0.0604735 16.33 0.27408 16.7734 0.615103 17.1084L7.98292 24.4028C8.37391 24.7901 8.90196 25.0073 9.45227 25.0073C10.0026 25.0073 10.5306 24.7901 10.9216 24.4028L10.9292 24.3952L10.9554 24.3691L10.9427 24.3817L11.0668 24.2593L21.9809 13.4566C22.1754 13.2594 22.284 12.9933 22.2831 12.7164C22.2856 12.579 22.2601 12.4425 22.2081 12.3153C22.1562 12.188 22.0789 12.0727 21.9809 11.9763L10.1815 0.299151C9.98515 0.105646 9.72002 -0.00195162 9.44439 2.68082e-05C9.16875 0.00200524 8.90519 0.113398 8.71169 0.3097C8.51818 0.506002 8.41059 0.771134 8.41257 1.04677C8.41454 1.3224 8.52594 1.58596 8.72224 1.77947L10.9216 3.9569C-0.0204034 14.8128 0.49526 14.244 0.34419 14.5031ZM12.4011 5.42624L19.7579 12.7206L17.9552 14.5022H3.24152L12.4011 5.42624Z" fill="#8A8A8A"/>
<path d="M11.0624 24.2634L10.978 24.3478L11.0624 24.2634Z" fill="#8A8A8A"/>
<path d="M10.9789 24.3453L10.9519 24.3715L10.9789 24.3453Z" fill="#8A8A8A"/>
<path d="M10.9207 24.4036L10.9267 24.3976L10.9217 24.4026L10.9207 24.4036Z" fill="#8A8A8A"/>
<path d="M22.9261 15.5453C22.9261 15.5453 20.8415 19.609 20.8415 20.7559C20.8359 21.0332 20.8857 21.3087 20.9879 21.5665C21.0902 21.8242 21.2428 22.059 21.4369 22.257C21.631 22.455 21.8626 22.6123 22.1182 22.7197C22.3739 22.8271 22.6484 22.8825 22.9257 22.8825C23.2029 22.8825 23.4774 22.8271 23.7331 22.7197C23.9887 22.6123 24.2204 22.455 24.4144 22.257C24.6085 22.059 24.7612 21.8242 24.8634 21.5665C24.9656 21.3087 25.0154 21.0332 25.0098 20.7559C25.0107 19.609 22.9261 15.5453 22.9261 15.5453Z" fill="#8A8A8A"/>
</svg>
