<svg width="19" height="14" viewBox="0 0 19 14" fill="none" xmlns="http://www.w3.org/2000/svg">
<path d="M18.6955 6.59675C16.4014 3.04593 13.0535 1 9.5 1C5.94655 1 2.59855 3.04703 0.30446 6.59675L0 7.05675L0.30446 7.51676C2.59855 11.0676 5.94655 13.1135 9.5 13.1135C13.0535 13.1135 16.4014 11.0665 18.6955 7.51676L19 7.05675L18.6955 6.59675ZM9.5 11.4421C7.99604 11.3833 6.52762 10.9549 5.21751 10.1927C3.9074 9.43051 2.79366 8.35674 1.96941 7.06113C2.79366 5.76553 3.9074 4.69175 5.21751 3.92958C6.52762 3.16741 7.99604 2.73898 9.5 2.68012C11.004 2.73898 12.4724 3.16741 13.7825 3.92958C15.0926 4.69175 16.2063 5.76553 17.0306 7.06113C16.2063 8.35674 15.0926 9.43051 13.7825 10.1927C12.4724 10.9549 11.004 11.3833 9.5 11.4421Z" fill="#464646"/>
<path d="M9.49987 3.71509C8.8574 3.71466 8.22924 3.91027 7.69484 4.27719C7.16044 4.64411 6.74382 5.16584 6.49766 5.77641C6.25151 6.38697 6.18689 7.05892 6.31197 7.70728C6.43705 8.35563 6.74622 8.95126 7.20036 9.41881C7.65451 9.88637 8.23323 10.2048 8.86332 10.334C9.49342 10.4631 10.1466 10.397 10.7402 10.1442C11.3338 9.89131 11.8412 9.46301 12.1981 8.91344C12.5551 8.36387 12.7457 7.71771 12.7457 7.05671C12.7431 6.17163 12.4004 5.32352 11.7923 4.69747C11.1842 4.07142 10.3601 3.71827 9.49987 3.71509Z" fill="#464646"/>
<path d="M18.6955 6.59675C16.4014 3.04593 13.0535 1 9.5 1C5.94655 1 2.59855 3.04703 0.30446 6.59675L0 7.05675L0.30446 7.51676C2.59855 11.0676 5.94655 13.1135 9.5 13.1135C13.0535 13.1135 16.4014 11.0665 18.6955 7.51676L19 7.05675L18.6955 6.59675ZM9.5 11.4421C7.99604 11.3833 6.52762 10.9549 5.21751 10.1927C3.9074 9.43051 2.79366 8.35674 1.96941 7.06113C2.79366 5.76553 3.9074 4.69175 5.21751 3.92958C6.52762 3.16741 7.99604 2.73898 9.5 2.68012C11.004 2.73898 12.4724 3.16741 13.7825 3.92958C15.0926 4.69175 16.2063 5.76553 17.0306 7.06113C16.2063 8.35674 15.0926 9.43051 13.7825 10.1927C12.4724 10.9549 11.004 11.3833 9.5 11.4421Z" fill="#464646"/>
<path d="M9.49987 3.71509C8.8574 3.71466 8.22924 3.91027 7.69484 4.27719C7.16044 4.64411 6.74382 5.16584 6.49766 5.77641C6.25151 6.38697 6.18689 7.05892 6.31197 7.70728C6.43705 8.35563 6.74622 8.95126 7.20036 9.41881C7.65451 9.88637 8.23323 10.2048 8.86332 10.334C9.49342 10.4631 10.1466 10.397 10.7402 10.1442C11.3338 9.89131 11.8412 9.46301 12.1981 8.91344C12.5551 8.36387 12.7457 7.71771 12.7457 7.05671C12.7431 6.17163 12.4004 5.32352 11.7923 4.69747C11.1842 4.07142 10.3601 3.71827 9.49987 3.71509Z" fill="#464646"/>
<path d="M1.63818 12.6398L18.0201 1" stroke="#464646" stroke-width="1.5"/>
</svg>
