<svg width="16" height="18" viewBox="0 0 16 18" fill="none" xmlns="http://www.w3.org/2000/svg">
<path d="M15.9997 8.58824C16.0104 8.00531 15.7187 7.40133 15.1671 7.03707C15.7187 6.67262 16.0104 6.07917 15.9997 5.48591C16.0104 4.89245 15.7085 4.25729 15.1254 3.90355L9.57676 0.447482H9.56604C9.08719 0.145589 8.54634 0 8.00454 0C7.4637 0 6.91176 0.145589 6.43291 0.447482L0.884441 3.90375C0.30151 4.25748 8.62364e-08 4.88231 0.0101397 5.4861C8.62364e-08 6.07936 0.291179 6.67281 0.842735 7.03726C0.291179 7.40133 0 8.00531 0 8.58824C0 9.1815 0.291179 9.77496 0.842735 10.1394C0.291179 10.5037 0.0101397 11.1075 0.0101397 11.6906C0.0101397 12.2944 0.312032 12.9188 0.895154 13.2833L6.45395 16.7288C6.93281 17.0307 7.47403 17.1765 8.01545 17.1765C8.55687 17.1765 9.09809 17.0305 9.57695 16.7288L15.1149 13.2833C15.6978 12.9188 15.9999 12.2942 15.9999 11.6906C15.9999 11.1076 15.7189 10.5142 15.1673 10.1394C15.7187 9.77496 16.0104 9.1815 15.9997 8.58824ZM14.2922 11.9611L8.7543 15.4066C8.52511 15.5419 8.27544 15.615 8.01526 15.615C7.75507 15.615 7.49469 15.5421 7.27621 15.4066L1.71742 11.9611C1.61315 11.8882 1.57145 11.8048 1.57145 11.6904C1.57145 11.5758 1.61315 11.4926 1.71742 11.4302L2.31068 11.0657L6.44324 13.6265C6.92248 13.918 7.46389 14.0743 8.00474 14.0743C8.54654 14.0743 9.08738 13.918 9.56623 13.6265L13.6992 11.0657L14.2924 11.4302C14.3967 11.4926 14.4384 11.5863 14.4384 11.6904C14.4382 11.8048 14.3965 11.8882 14.2922 11.9611ZM14.2922 8.85895L13.293 9.48339L8.74416 12.3045C8.51497 12.4398 8.26492 12.5128 8.00454 12.5128C7.74417 12.5128 7.49469 12.4399 7.2655 12.3045L2.71684 9.48339L1.71761 8.85895C1.60282 8.78606 1.57164 8.70265 1.5615 8.58824C1.57164 8.48397 1.60263 8.39042 1.71761 8.32805L2.30054 7.9636L6.44305 10.5243C6.92229 10.8262 7.4637 10.972 8.00454 10.972C8.54634 10.972 9.08719 10.8262 9.56604 10.5347L13.7097 7.96341L14.2922 8.32786C14.3965 8.39023 14.4382 8.48397 14.4382 8.58805C14.4382 8.70265 14.3965 8.78606 14.2922 8.85895ZM14.2922 5.75661L13.2725 6.39158C13.2618 6.40191 13.2511 6.40191 13.241 6.41244L8.74416 9.20236C8.51497 9.34833 8.26492 9.4107 8.00454 9.4107C7.74417 9.4107 7.48398 9.34833 7.2655 9.20236L2.76868 6.41244C2.75855 6.4021 2.74783 6.4021 2.73769 6.39158L1.71761 5.75661C1.61334 5.68372 1.57164 5.6005 1.5615 5.4861C1.57164 5.38183 1.61334 5.28828 1.71761 5.22591L7.26569 1.76965C7.49489 1.63439 7.74455 1.5615 8.00474 1.5615C8.26492 1.5615 8.51516 1.63439 8.74435 1.76965L14.2924 5.22591C14.3967 5.28828 14.4384 5.38202 14.4384 5.4861C14.4382 5.6005 14.3965 5.69425 14.2922 5.75661Z" fill="white"/>
</svg>
