<svg width="51" height="24" viewBox="0 0 51 24" fill="none" xmlns="http://www.w3.org/2000/svg">
<rect x="4" y="4" width="43" height="16" rx="8" stroke="#BBBBBB" stroke-width="2"/>
<rect x="10" y="10" width="31" height="4" rx="2" stroke="#BBBBBB" stroke-width="2"/>
<path d="M14 14V22" stroke="#BBBBBB" stroke-width="2"/>
<rect x="12" y="17" width="4" height="6" stroke="#BBBBBB" stroke-width="2" stroke-linecap="round" stroke-linejoin="round"/>
<path d="M38 10L38 2" stroke="#BBBBBB" stroke-width="2"/>
<rect x="40" y="7" width="4" height="6" transform="rotate(-180 40 7)" stroke="#BBBBBB" stroke-width="2" stroke-linecap="round" stroke-linejoin="round"/>
<path d="M22 14V22" stroke="#BBBBBB" stroke-width="2"/>
<rect x="20" y="17" width="4" height="6" stroke="#BBBBBB" stroke-width="2" stroke-linecap="round" stroke-linejoin="round"/>
<path d="M30 10L30 2" stroke="#BBBBBB" stroke-width="2"/>
<rect x="32" y="7" width="4" height="6" transform="rotate(-180 32 7)" stroke="#BBBBBB" stroke-width="2" stroke-linecap="round" stroke-linejoin="round"/>
<path d="M30 14V22" stroke="#BBBBBB" stroke-width="2"/>
<rect x="28" y="17" width="4" height="6" stroke="#BBBBBB" stroke-width="2" stroke-linecap="round" stroke-linejoin="round"/>
<path d="M22 10L22 2" stroke="#BBBBBB" stroke-width="2"/>
<rect x="24" y="7" width="4" height="6" transform="rotate(-180 24 7)" stroke="#BBBBBB" stroke-width="2" stroke-linecap="round" stroke-linejoin="round"/>
<path d="M38 14V22" stroke="#BBBBBB" stroke-width="2"/>
<rect x="36" y="17" width="4" height="6" stroke="#BBBBBB" stroke-width="2" stroke-linecap="round" stroke-linejoin="round"/>
<path d="M41 12L49 12" stroke="#BBBBBB" stroke-width="2"/>
<rect x="44" y="14" width="4" height="6" transform="rotate(-90 44 14)" stroke="#BBBBBB" stroke-width="2" stroke-linecap="round" stroke-linejoin="round"/>
<path d="M10 12L2 12" stroke="#BBBBBB" stroke-width="2"/>
<rect x="7" y="10" width="4" height="6" transform="rotate(90 7 10)" stroke="#BBBBBB" stroke-width="2" stroke-linecap="round" stroke-linejoin="round"/>
<path d="M14 10L14 2" stroke="#BBBBBB" stroke-width="2"/>
<rect x="16" y="7" width="4" height="6" transform="rotate(-180 16 7)" stroke="#BBBBBB" stroke-width="2" stroke-linecap="round" stroke-linejoin="round"/>
</svg>
