<svg width="30" height="38" viewBox="0 0 30 38" fill="none" xmlns="http://www.w3.org/2000/svg">
<path d="M15.83 27.5508C15.7843 27.5355 15.7386 27.5164 15.6929 27.4972C15.8453 27.5623 15.9976 27.6274 16.1462 27.6886C15.8986 27.5853 15.6701 27.4436 15.4606 27.2828C15.5901 27.3824 15.7158 27.4819 15.8453 27.5814C15.6396 27.4207 15.4568 27.2369 15.2968 27.034C15.3959 27.1642 15.4949 27.2905 15.5939 27.4207C15.4378 27.2178 15.3083 26.9957 15.2092 26.7622C15.274 26.9153 15.3387 27.0685 15.3997 27.2178C15.2816 26.9383 15.2054 26.6474 15.1635 26.3488C15.1864 26.5172 15.2092 26.6895 15.2321 26.8579C15.1864 26.5134 15.1826 26.165 15.2283 25.8205C15.2054 25.9889 15.1826 26.1612 15.1597 26.3296C15.2054 26.0004 15.293 25.6789 15.4225 25.3726C15.3578 25.5257 15.293 25.6789 15.2321 25.8282C15.3959 25.4377 15.6206 25.0778 15.8796 24.741C15.7805 24.8711 15.6815 24.9974 15.5825 25.1276C16.3709 24.1055 17.422 23.3092 18.4351 22.5207C18.3056 22.6202 18.18 22.7197 18.0505 22.8192C19.4216 21.755 20.8307 20.7138 22.0076 19.4275C23.3558 17.9499 24.4222 16.1928 24.8755 14.2251C25.1344 13.0882 25.2449 11.8861 25.1497 10.7224C25.0964 10.0333 24.9973 9.33659 24.8221 8.6705C24.6584 8.04651 24.4108 7.44167 24.1366 6.85979C23.2378 4.94573 21.6191 3.42597 19.8519 2.32347C18.3818 1.40854 16.7441 0.76542 15.1064 0.221826C14.9541 0.17206 14.7979 0.122295 14.6456 0.0725291C14.3066 1.30136 13.9715 2.53401 13.6325 3.76284C13.6782 3.77815 13.7239 3.79729 13.7696 3.81643C13.6173 3.75136 13.4649 3.68628 13.3164 3.62503C13.5639 3.72839 13.7924 3.87003 14.0019 4.03081C13.8724 3.93128 13.7467 3.83175 13.6173 3.73222C13.8229 3.893 14.0057 4.07675 14.1657 4.27964C14.0667 4.14948 13.9676 4.02315 13.8686 3.893C14.0248 4.09589 14.1543 4.31792 14.2533 4.55143C14.1885 4.39831 14.1238 4.24518 14.0629 4.09589C14.1809 4.37534 14.2571 4.66628 14.299 4.96487C14.2761 4.79643 14.2533 4.62417 14.2304 4.45573C14.2761 4.80026 14.28 5.14862 14.2342 5.49315C14.2571 5.32472 14.2799 5.15245 14.3028 4.98401C14.2571 5.31323 14.1695 5.63479 14.04 5.94104C14.1048 5.78792 14.1695 5.63479 14.2304 5.4855C14.0667 5.87597 13.842 6.23581 13.583 6.57268C13.682 6.44253 13.781 6.3162 13.88 6.18604C13.0917 7.20815 12.0405 8.0044 11.0274 8.793C11.1569 8.69347 11.2826 8.59394 11.4121 8.4944C10.041 9.55862 8.6318 10.5999 7.45495 11.8861C6.10671 13.3638 5.0403 15.1209 4.58708 17.0885C4.32809 18.2255 4.21764 19.4275 4.31286 20.5913C4.36618 21.2803 4.4652 21.9771 4.6404 22.6432C4.80417 23.2671 5.05173 23.872 5.32594 24.4539C6.22477 26.3679 7.84343 27.8877 9.61061 28.9902C11.0807 29.9051 12.7184 30.5482 14.3561 31.0918C14.5085 31.1416 14.6646 31.1914 14.817 31.2411C15.2778 31.3904 15.8758 31.2909 16.2833 31.0497C16.6794 30.8162 17.0564 30.3607 17.1592 29.9051C17.3992 28.8562 16.8469 27.8762 15.83 27.5508C14.9769 27.2752 14.1314 26.9842 13.3088 26.6359C13.4611 26.701 13.6134 26.766 13.762 26.8273C12.6194 26.3411 11.5187 25.7516 10.5361 24.9936C10.6656 25.0932 10.7913 25.1927 10.9208 25.2922C10.2885 24.8022 9.70964 24.2433 9.21833 23.6078C9.31735 23.738 9.41637 23.8643 9.5154 23.9945C9.09264 23.4471 8.74225 22.846 8.47565 22.2106C8.5404 22.3637 8.60514 22.5168 8.66608 22.6661C8.38805 21.9962 8.20524 21.2918 8.10622 20.5721C8.12907 20.7406 8.15192 20.9128 8.17477 21.0813C8.06051 20.2008 8.06432 19.3012 8.17858 18.4207C8.15573 18.5892 8.13288 18.7614 8.11003 18.9299C8.21667 18.1528 8.41852 17.391 8.7194 16.6674C8.65466 16.8206 8.58991 16.9737 8.52897 17.123C8.84889 16.3574 9.27546 15.6492 9.782 14.9907C9.68298 15.1209 9.58395 15.2472 9.48493 15.3774C10.3152 14.2978 11.3321 13.3867 12.3871 12.5369C12.6765 12.3034 12.9698 12.0737 13.2669 11.844C13.1374 11.9435 13.0117 12.0431 12.8822 12.1426C13.6591 11.5378 14.4475 10.9482 15.1902 10.3051C15.8681 9.71558 16.4661 9.06862 16.9917 8.33745C17.1859 8.06565 17.3535 7.78237 17.4906 7.47612C17.6886 7.02823 17.8791 6.58034 17.9591 6.09417C18.0124 5.77261 18.0619 5.44339 18.0733 5.118C18.0885 4.67393 18.0238 4.22222 17.9476 3.78964C17.8334 3.13886 17.5515 2.48425 17.1554 1.95597C16.7136 1.36644 16.2261 0.868779 15.5825 0.489795C15.2892 0.317529 14.9655 0.168232 14.6418 0.068701C14.1771 -0.0767677 13.5868 0.0189354 13.1755 0.260107C12.7794 0.493623 12.4023 0.94917 12.2995 1.40472C12.0633 2.44979 12.6118 3.43362 13.6287 3.75901C14.4818 4.03464 15.3273 4.32558 16.15 4.67393C15.9976 4.60886 15.8453 4.54378 15.6967 4.48253C16.8393 4.9687 17.94 5.55823 18.9226 6.3162C18.7931 6.21667 18.6674 6.11714 18.538 6.01761C19.1702 6.50761 19.7491 7.06651 20.2404 7.70198C20.1414 7.57183 20.0424 7.4455 19.9433 7.31534C20.3661 7.86276 20.7165 8.46378 20.9831 9.09925C20.9183 8.94612 20.8536 8.793 20.7926 8.6437C21.0707 9.31362 21.2535 10.018 21.3525 10.7377C21.3297 10.5692 21.3068 10.397 21.284 10.2285C21.3982 11.109 21.3944 12.0086 21.2801 12.8891C21.303 12.7207 21.3258 12.5484 21.3487 12.3799C21.2421 13.1571 21.0402 13.9189 20.7393 14.6424C20.8041 14.4892 20.8688 14.3361 20.9298 14.1868C20.6098 14.9524 20.1833 15.6607 19.6767 16.3191C19.7758 16.1889 19.8748 16.0626 19.9738 15.9325C19.1435 17.012 18.1266 17.9231 17.0716 18.7729C16.7822 19.0064 16.4889 19.2361 16.1919 19.4658C16.3214 19.3663 16.447 19.2667 16.5765 19.1672C15.7996 19.7721 15.0112 20.3616 14.2685 21.0047C13.5868 21.5942 12.9926 22.2412 12.4671 22.9724C12.2728 23.2442 12.1052 23.5275 11.9681 23.8337C11.7701 24.2816 11.5797 24.7295 11.4997 25.2157C11.4464 25.5372 11.3968 25.8664 11.3854 26.1918C11.3702 26.6359 11.4349 27.0876 11.5111 27.5202C11.6254 28.171 11.9072 28.8256 12.3033 29.3539C12.7451 29.9434 13.2326 30.441 13.8762 30.82C14.1695 30.9923 14.4932 31.1416 14.817 31.2411C15.2816 31.3866 15.8719 31.2909 16.2833 31.0497C16.6794 30.8162 17.0564 30.3607 17.1592 29.9051C17.2697 29.4151 17.2468 28.8639 16.9688 28.4313C16.6946 28.0025 16.3214 27.7001 15.83 27.5508Z" fill="#BBBBBB"/>
<path d="M1.90576 37.213C2.76269 37.213 3.61582 37.213 4.47275 37.213C6.51416 37.213 8.55176 37.213 10.5932 37.213C13.0573 37.213 15.5253 37.213 17.9895 37.213C20.1299 37.213 22.2741 37.213 24.4146 37.213C25.4467 37.213 26.4788 37.2245 27.5148 37.213C27.53 37.213 27.5414 37.213 27.5566 37.213C28.0441 37.213 28.5583 36.9986 28.9049 36.6541C29.2362 36.321 29.4838 35.7774 29.4609 35.2989C29.4381 34.8051 29.2781 34.2921 28.9049 33.9438C28.5316 33.5992 28.0746 33.3849 27.5566 33.3849C26.6997 33.3849 25.8466 33.3849 24.9897 33.3849C22.9482 33.3849 20.9106 33.3849 18.8692 33.3849C16.4051 33.3849 13.9371 33.3849 11.4729 33.3849C9.33252 33.3849 7.18828 33.3849 5.04785 33.3849C4.01572 33.3849 2.98359 33.3734 1.94765 33.3849C1.93242 33.3849 1.92099 33.3849 1.90576 33.3849C1.41826 33.3849 0.904099 33.5992 0.557517 33.9438C0.226169 34.2768 -0.0213888 34.8204 0.00146274 35.2989C0.0243143 35.7928 0.184275 36.3057 0.557517 36.6541C0.93076 36.9986 1.38779 37.213 1.90576 37.213Z" fill="#BBBBBB"/>
</svg>
