<svg width="17" height="18" viewBox="0 0 17 18" fill="none" xmlns="http://www.w3.org/2000/svg">
<path d="M15.2789 0.612069C14.4628 -0.204023 13.1445 -0.204023 12.3284 0.612069L1.59365 11.3259C1.5518 11.3677 1.53087 11.3887 1.50995 11.4305C1.50995 11.4305 1.50995 11.4514 1.48902 11.4514C1.46809 11.4933 1.44717 11.5142 1.44717 11.5561V11.577L0.0242397 16.2224C-0.0385366 16.4526 0.0242397 16.6828 0.170718 16.8502C0.29627 16.9758 0.442748 17.0385 0.610152 17.0385C0.672928 17.0385 0.735704 17.0385 0.798481 17.0176L5.423 15.5947H5.44393C5.48578 15.5738 5.52763 15.5738 5.54855 15.5528C5.54855 15.5528 5.56948 15.5528 5.56948 15.5319C5.61133 15.511 5.65318 15.4901 5.67411 15.4482L16.3879 4.73438C17.204 3.91829 17.204 2.59999 16.3879 1.78389L15.2789 0.612069ZM1.57272 15.4482L2.34696 12.9581L4.08377 14.6949L1.57272 15.4482ZM15.5091 3.81366L14.2535 5.06919L11.9517 2.76739L13.2073 1.51186C13.5421 1.17706 14.0652 1.17706 14.4 1.51186L15.53 2.64184C15.8439 2.95572 15.8439 3.49978 15.5091 3.81366Z" fill="white"/>
</svg>
