<svg width="29" height="22" viewBox="0 0 29 22" fill="none" xmlns="http://www.w3.org/2000/svg">
<path d="M14.264 9.00366C15.1544 9.00366 16.0247 8.73966 16.765 8.24502C17.5053 7.75039 18.0824 7.04734 18.4231 6.22479C18.7639 5.40223 18.8531 4.4971 18.6794 3.62385C18.5058 2.7506 18.0771 1.94845 17.4476 1.31883C16.8181 0.689207 16.016 0.260389 15.1428 0.0865975C14.2696 -0.0871937 13.3644 0.00184744 12.5418 0.342462C11.7192 0.683077 11.016 1.25997 10.5213 2.00019C10.0265 2.74041 9.76236 3.61072 9.76221 4.50106C9.76343 5.69472 10.2381 6.83915 11.0821 7.68326C11.926 8.52737 13.0704 9.00224 14.264 9.00366ZM14.264 1.90471C14.7777 1.90471 15.2798 2.05703 15.7069 2.34241C16.134 2.62778 16.4669 3.0334 16.6635 3.50796C16.86 3.98252 16.9115 4.50471 16.8113 5.00851C16.711 5.5123 16.4637 5.97506 16.1005 6.33828C15.7373 6.70149 15.2745 6.94884 14.7707 7.04905C14.2669 7.14926 13.7447 7.09783 13.2702 6.90126C12.7956 6.70469 12.39 6.37181 12.1046 5.94472C11.8192 5.51762 11.6669 5.01549 11.6669 4.50183C11.6675 3.81322 11.9413 3.15299 12.4283 2.66607C12.9152 2.17914 13.5754 1.90532 14.264 1.90471Z" fill="#8A8A8A"/>
<path d="M23.2417 10.8098C23.9728 10.8098 24.6876 10.593 25.2956 10.1867C25.9035 9.7805 26.3774 9.20312 26.6572 8.52759C26.937 7.85205 27.0102 7.10871 26.8676 6.39157C26.7249 5.67443 26.3728 5.01569 25.8558 4.49866C25.3388 3.98163 24.68 3.62953 23.9629 3.48688C23.2457 3.34423 22.5024 3.41745 21.8269 3.69726C21.1513 3.97708 20.574 4.45092 20.1677 5.05889C19.7615 5.66685 19.5447 6.38163 19.5447 7.11282C19.5467 8.09269 19.9369 9.03185 20.6297 9.72472C21.3226 10.4176 22.2618 10.8078 23.2417 10.8098ZM23.2417 5.31439C23.5966 5.31439 23.9435 5.41964 24.2387 5.61683C24.5338 5.81402 24.7638 6.0943 24.8996 6.42221C25.0354 6.75013 25.071 7.11095 25.0017 7.45907C24.9325 7.80718 24.7616 8.12694 24.5106 8.37792C24.2596 8.62889 23.9399 8.79981 23.5918 8.86905C23.2436 8.9383 22.8828 8.90276 22.5549 8.76693C22.227 8.6311 21.9467 8.40109 21.7495 8.10598C21.5523 7.81086 21.4471 7.4639 21.4471 7.10896C21.4479 6.63327 21.6372 6.17728 21.9736 5.84091C22.31 5.50454 22.766 5.31521 23.2417 5.31439Z" fill="#8A8A8A"/>
<path d="M5.28584 10.8098C6.01703 10.8098 6.7318 10.593 7.33976 10.1867C7.94773 9.7805 8.42158 9.20312 8.70139 8.52759C8.98121 7.85205 9.05442 7.10871 8.91177 6.39157C8.76912 5.67443 8.41702 5.01569 7.89999 4.49866C7.38296 3.98163 6.72422 3.62953 6.00708 3.48688C5.28994 3.34423 4.5466 3.41745 3.87107 3.69726C3.19554 3.97708 2.61815 4.45092 2.21192 5.05889C1.80569 5.66685 1.58887 6.38163 1.58887 7.11282C1.5907 8.09275 1.98079 9.03202 2.67371 9.72494C3.36663 10.4179 4.3059 10.808 5.28584 10.8098ZM5.28584 5.31439C5.64074 5.31455 5.98762 5.41992 6.28264 5.61721C6.57765 5.81449 6.80755 6.09482 6.94325 6.42275C7.07896 6.75067 7.11439 7.11148 7.04506 7.45954C6.97573 7.8076 6.80475 8.12729 6.55375 8.37819C6.30274 8.62909 5.98298 8.79993 5.63489 8.86911C5.2868 8.93829 4.92601 8.90271 4.59814 8.76686C4.27027 8.63101 3.99004 8.40099 3.79288 8.10589C3.59573 7.81079 3.4905 7.46386 3.4905 7.10896C3.49111 6.63307 3.68048 6.17685 4.01706 5.84042C4.35364 5.50398 4.80994 5.3148 5.28584 5.31439Z" fill="#8A8A8A"/>
<path d="M28.6454 15.6929C28.6454 13.5409 27.2143 11.791 25.4552 11.791H21.065C20.7444 11.4351 20.3539 11.1489 19.918 10.9502C19.4821 10.7514 19.0101 10.6444 18.5311 10.6357H10.1143C9.6353 10.6444 9.16321 10.7514 8.72731 10.9502C8.2914 11.1489 7.901 11.4351 7.58033 11.791H3.19018C1.43104 11.791 0 13.5409 0 15.6929V20.6306H6.21784V21.501H22.4267V20.6306H28.6446V15.6929H28.6454ZM18.5334 12.542C19.8219 12.542 20.8702 13.8236 20.8702 15.3994V19.5924H7.77673V15.3994C7.77673 13.8236 8.82498 12.542 10.1128 12.542H18.5334ZM1.56043 18.7251V15.6929C1.5186 15.2128 1.66587 14.7354 1.97087 14.3624C2.27587 13.9893 2.71448 13.7501 3.19326 13.6957H6.48356C6.31011 14.247 6.22181 14.8215 6.22169 15.3994V18.7244L1.56043 18.7251ZM27.088 18.7251H22.4267V15.3994C22.4265 14.8215 22.338 14.2469 22.1641 13.6957H25.4544C25.9332 13.7501 26.3718 13.9893 26.6768 14.3624C26.9818 14.7354 27.1291 15.2128 27.0872 15.6929L27.088 18.7251Z" fill="#8A8A8A"/>
</svg>
