<svg width="12" height="8" viewBox="0 0 12 8" fill="none" xmlns="http://www.w3.org/2000/svg">
<path d="M11.4123 3.60622C10.0119 1.31828 7.96821 0 5.79908 0C3.62995 0 1.58623 1.31899 0.185851 3.60622L0 3.90262L0.185851 4.19902C1.58623 6.48696 3.62995 7.80524 5.79908 7.80524C7.96821 7.80524 10.0119 6.48625 11.4123 4.19902L11.5982 3.90262L11.4123 3.60622ZM5.79908 6.72831C4.88101 6.69039 3.98465 6.41433 3.18492 5.92323C2.38519 5.43213 1.70533 4.74026 1.20218 3.90544C1.70533 3.07063 2.38519 2.37875 3.18492 1.88765C3.98465 1.39655 4.88101 1.1205 5.79908 1.08257C6.71714 1.1205 7.61351 1.39655 8.41324 1.88765C9.21297 2.37875 9.89282 3.07063 10.396 3.90544C9.89282 4.74026 9.21297 5.43213 8.41324 5.92323C7.61351 6.41433 6.71714 6.69039 5.79908 6.72831Z" fill="white"/>
<path d="M5.79899 1.74947C5.40681 1.74919 5.02336 1.87523 4.69715 2.11165C4.37094 2.34807 4.11662 2.68425 3.96636 3.07766C3.8161 3.47107 3.77665 3.90404 3.853 4.3218C3.92935 4.73956 4.11808 5.12335 4.3953 5.42461C4.67253 5.72588 5.0258 5.93108 5.41042 6.01428C5.79505 6.09747 6.19376 6.05491 6.55611 5.89199C6.91847 5.72907 7.22819 5.45309 7.4461 5.09898C7.66401 4.74487 7.78032 4.32852 7.78032 3.90261C7.77878 3.33232 7.56958 2.78584 7.19838 2.38245C6.82718 1.97906 6.32412 1.75151 5.79899 1.74947Z" fill="white"/>
</svg>
