<svg width="18" height="17" viewBox="0 0 18 17" fill="none" xmlns="http://www.w3.org/2000/svg">
<path d="M15.7997 16.34H3.19478C2.80902 16.3403 2.43 16.2321 2.09579 16.0265C1.76158 15.8209 1.48396 15.525 1.29084 15.1686C1.09772 14.8121 0.995896 14.4077 0.995606 13.996C0.995316 13.5842 1.09657 13.1796 1.28919 12.8229L7.59458 1.17301C7.78755 0.816363 8.06506 0.520206 8.39924 0.314302C8.73341 0.108398 9.11247 0 9.49832 0C9.88418 0 10.2632 0.108398 10.5974 0.314302C10.9316 0.520206 11.2091 0.816363 11.4021 1.17301L17.7052 12.8229C17.8982 13.1795 17.9999 13.5841 18 13.996C18.0001 14.4078 17.8986 14.8124 17.7058 15.1692C17.513 15.5259 17.2356 15.8222 16.9015 16.0283C16.5675 16.2343 16.1885 16.3429 15.8026 16.3431L15.7997 16.34ZM9.49722 1.51241C9.35997 1.51065 9.22482 1.54843 9.10601 1.62177C8.98719 1.69511 8.88911 1.8013 8.82209 1.92915L2.51817 13.5775C2.44944 13.7042 2.41321 13.8481 2.41313 13.9945C2.41305 14.141 2.44913 14.2849 2.51773 14.4117C2.58633 14.5385 2.68503 14.6438 2.80389 14.717C2.92275 14.7902 3.05757 14.8286 3.19478 14.8285H15.7997C15.9367 14.8284 16.0714 14.7897 16.19 14.7164C16.3087 14.6431 16.4072 14.5378 16.4756 14.411C16.544 14.2842 16.58 14.1404 16.5798 13.9941C16.5797 13.8478 16.5435 13.7041 16.4748 13.5775L10.1738 1.92915C10.1064 1.80129 10.0081 1.69513 9.88902 1.62181C9.76998 1.54849 9.63465 1.5107 9.49722 1.51241Z" fill="white"/>
<path d="M9.61783 10.5584C9.42995 10.5584 9.24976 10.4788 9.11691 10.337C8.98406 10.1952 8.90942 10.0029 8.90942 9.80231V5.63803C8.90942 5.43749 8.98406 5.24516 9.11691 5.10336C9.24976 4.96155 9.42995 4.88189 9.61783 4.88189C9.80571 4.88189 9.98589 4.96155 10.1187 5.10336C10.2516 5.24516 10.3262 5.43749 10.3262 5.63803V9.80231C10.3262 10.0029 10.2516 10.1952 10.1187 10.337C9.98589 10.4788 9.80571 10.5584 9.61783 10.5584Z" fill="white"/>
<path d="M9.61698 13.2302C10.0866 13.2302 10.4674 12.8238 10.4674 12.3225C10.4674 11.8212 10.0866 11.4148 9.61698 11.4148C9.14733 11.4148 8.7666 11.8212 8.7666 12.3225C8.7666 12.8238 9.14733 13.2302 9.61698 13.2302Z" fill="white"/>
</svg>
