<svg width="12" height="16" viewBox="0 0 12 16" fill="none" xmlns="http://www.w3.org/2000/svg">
<path d="M9.65568 3.171C9.43882 3.17093 9.22514 3.22306 9.03268 3.32299V2.593C9.03323 2.35298 8.97016 2.1171 8.84989 1.90938C8.72962 1.70167 8.55645 1.52955 8.34801 1.41054C8.13957 1.29153 7.90331 1.2299 7.6633 1.23191C7.42329 1.23392 7.1881 1.29951 6.98168 1.42199C6.8996 1.13979 6.7283 0.89177 6.49345 0.715073C6.2586 0.538377 5.97283 0.442513 5.67893 0.441837C5.38503 0.441161 5.09882 0.53571 4.86315 0.711325C4.62749 0.88694 4.45506 1.13417 4.37168 1.416C4.16494 1.29605 3.93023 1.23275 3.69122 1.23248C3.4522 1.23221 3.21735 1.29498 3.01034 1.41445C2.80333 1.53393 2.63149 1.70589 2.51217 1.91299C2.39284 2.12008 2.33024 2.35498 2.33068 2.59399V6.422C1.9788 6.13597 1.53914 5.97988 1.08568 5.97999C0.889766 5.98026 0.701951 6.0582 0.563419 6.19674C0.424887 6.33527 0.346944 6.52308 0.34668 6.719V11.81C0.403849 12.4674 0.607836 13.1035 0.943598 13.6715C1.27936 14.2396 1.73833 14.725 2.28668 15.092C2.30533 15.1119 2.32612 15.1297 2.34868 15.145C2.64311 15.3621 2.96793 15.5346 3.31268 15.657C3.57172 15.7598 3.84189 15.8319 4.11768 15.872C4.13433 15.8731 4.15103 15.8731 4.16768 15.872C4.26166 15.8725 4.35229 15.8372 4.4211 15.7732C4.48991 15.7092 4.5317 15.6213 4.53795 15.5275C4.5442 15.4338 4.51444 15.3412 4.45474 15.2686C4.39504 15.196 4.30989 15.1489 4.21668 15.137C3.71053 15.056 3.2296 14.8604 2.81068 14.565L2.75668 14.526C2.29155 14.2273 1.8997 13.8277 1.61024 13.3568C1.32077 12.8859 1.14114 12.3559 1.08468 11.806V6.718C1.41471 6.71852 1.73107 6.84986 1.96444 7.08323C2.19781 7.3166 2.32915 7.63296 2.32968 7.96299V9.919C2.3298 10.0131 2.36592 10.1035 2.43064 10.1718C2.49536 10.24 2.58376 10.2809 2.67768 10.286H2.69668C2.77068 10.286 4.51268 10.334 4.89668 12.628C4.90469 12.6758 4.92204 12.7216 4.94773 12.7626C4.97343 12.8037 5.00696 12.8394 5.04643 12.8675C5.08589 12.8957 5.13051 12.9157 5.17774 12.9266C5.22497 12.9375 5.27388 12.939 5.32168 12.931C5.36948 12.923 5.41524 12.9056 5.45634 12.8799C5.49743 12.8543 5.53306 12.8207 5.5612 12.7812C5.58934 12.7418 5.60943 12.6972 5.62032 12.6499C5.63121 12.6027 5.63269 12.5538 5.62468 12.506C5.57259 11.8086 5.29489 11.1472 4.83357 10.6217C4.37226 10.0961 3.7524 9.73504 3.06768 9.593V2.593C3.07413 2.43222 3.14253 2.28016 3.25857 2.16869C3.3746 2.05721 3.52927 1.99495 3.69018 1.99495C3.85109 1.99495 4.00576 2.05721 4.12179 2.16869C4.23783 2.28016 4.30624 2.43222 4.31268 2.593V7.061C4.31268 7.15899 4.35161 7.25298 4.4209 7.32227C4.4902 7.39157 4.58418 7.4305 4.68218 7.4305C4.78018 7.4305 4.87416 7.39157 4.94346 7.32227C5.01275 7.25298 5.05168 7.15899 5.05168 7.061V1.802C5.04832 1.71815 5.06193 1.63449 5.0917 1.55603C5.12147 1.47757 5.16678 1.40594 5.22492 1.34543C5.28305 1.28491 5.35281 1.23677 5.43001 1.20388C5.50722 1.17099 5.59027 1.15404 5.67418 1.15404C5.7581 1.15404 5.84114 1.17099 5.91834 1.20388C5.99555 1.23677 6.06531 1.28491 6.12344 1.34543C6.18158 1.40594 6.22689 1.47757 6.25666 1.55603C6.28643 1.63449 6.30004 1.71815 6.29668 1.802V7.061C6.29668 7.15886 6.33556 7.25272 6.40476 7.32192C6.47396 7.39112 6.56781 7.43 6.66568 7.43H6.67768C6.77554 7.43 6.8694 7.39112 6.9386 7.32192C7.0078 7.25272 7.04668 7.15886 7.04668 7.061V2.593C7.05312 2.43222 7.12153 2.28016 7.23757 2.16869C7.3536 2.05721 7.50827 1.99495 7.66918 1.99495C7.83009 1.99495 7.98476 2.05721 8.10079 2.16869C8.21683 2.28016 8.28524 2.43222 8.29168 2.593V8.193C8.29168 8.29099 8.33061 8.38498 8.3999 8.45427C8.4692 8.52357 8.56318 8.5625 8.66118 8.5625C8.75918 8.5625 8.85316 8.52357 8.92246 8.45427C8.99175 8.38498 9.03068 8.29099 9.03068 8.193V4.532C9.03712 4.37122 9.10553 4.21916 9.22157 4.10769C9.3376 3.99621 9.49227 3.93395 9.65318 3.93395C9.81409 3.93395 9.96876 3.99621 10.0848 4.10769C10.2008 4.21916 10.2692 4.37122 10.2757 4.532V10.642C10.2995 11.6269 10.0109 12.5941 9.45109 13.4049C8.8913 14.2156 8.08916 14.8283 7.15968 15.155C7.11372 15.1704 7.07123 15.1946 7.03465 15.2264C6.99806 15.2582 6.9681 15.2969 6.94646 15.3402C6.92483 15.3836 6.91194 15.4308 6.90855 15.4791C6.90515 15.5275 6.91131 15.576 6.92668 15.622C6.94204 15.668 6.96631 15.7104 6.99809 15.747C7.02988 15.7836 7.06856 15.8136 7.11193 15.8352C7.15529 15.8568 7.20249 15.8697 7.25083 15.8731C7.29918 15.8765 7.34772 15.8704 7.39368 15.855C7.8283 15.7077 8.24154 15.5036 8.62268 15.248C9.47168 14.754 9.49668 14.534 9.55668 14.463C10.5236 13.4288 11.0476 12.0574 11.0167 10.642V4.532C11.0162 4.1712 10.8726 3.82533 10.6175 3.57021C10.3623 3.31508 10.0165 3.17152 9.65568 3.171Z" fill="white"/>
</svg>
