<svg width="39" height="35" viewBox="0 0 39 35" fill="none" xmlns="http://www.w3.org/2000/svg">
<path d="M11.1422 6.66649C10.5026 6.66613 9.87654 6.48171 9.33886 6.13525C8.80119 5.78879 8.37457 5.29492 8.10994 4.7126C7.8453 4.13028 7.75383 3.48411 7.84643 2.85122C7.93904 2.21832 8.21181 1.62545 8.6322 1.14336C9.05258 0.661274 9.60281 0.310342 10.2172 0.132455C10.8316 -0.0454323 11.4842 -0.0427589 12.0971 0.140155C12.7101 0.323069 13.2574 0.678496 13.6738 1.16401C14.0902 1.64952 14.3581 2.24461 14.4456 2.87824C14.466 3.02921 14.4764 3.18138 14.4767 3.33373C14.4768 3.77157 14.3906 4.20514 14.2231 4.60966C14.0555 5.01417 13.8099 5.38169 13.5002 5.69121C13.1905 6.00073 12.8228 6.24618 12.4182 6.41352C12.0136 6.58087 11.58 6.66683 11.1422 6.66649ZM11.1422 1.87306C10.8533 1.87289 10.5708 1.95841 10.3304 2.11881C10.0901 2.2792 9.90277 2.50727 9.79208 2.77416C9.68139 3.04104 9.65235 3.33477 9.70861 3.61817C9.76488 3.90156 9.90392 4.16191 10.1082 4.36628C10.3124 4.57064 10.5727 4.70984 10.856 4.76627C11.1394 4.82271 11.4331 4.79383 11.7001 4.6833C11.967 4.57277 12.1952 4.38555 12.3558 4.14533C12.5163 3.9051 12.602 3.62266 12.602 3.33373C12.6019 3.26637 12.5973 3.19909 12.5882 3.13235C12.5394 2.78341 12.3662 2.46383 12.1005 2.23243C11.8349 2.00104 11.4945 1.87342 11.1422 1.87306Z" fill="#BBBBBB"/>
<path d="M26.8796 6.66638C26.4419 6.66649 26.0085 6.58036 25.6041 6.41292C25.1997 6.24547 24.8322 5.99999 24.5227 5.69049C24.2132 5.38099 23.9678 5.01354 23.8003 4.60914C23.6329 4.20474 23.5468 3.77132 23.5469 3.33362C23.5476 2.44985 23.8989 1.60246 24.5237 0.977458C25.1486 0.352457 25.9958 0.000915631 26.8796 7.30781e-08C27.4464 -0.000118583 28.0038 0.144259 28.4992 0.419492C28.9947 0.694725 29.4117 1.09172 29.7111 1.57298C30.0104 2.05424 30.1821 2.60387 30.2099 3.16994C30.2377 3.73601 30.1208 4.29983 29.8701 4.80812C29.5946 5.36528 29.169 5.83448 28.6413 6.16292C28.1136 6.49137 27.5046 6.66603 26.8831 6.66724L26.8796 6.66638ZM26.8736 1.87295C26.5159 1.87279 26.1706 2.00435 25.9038 2.24252C25.6369 2.4807 25.4671 2.8088 25.4267 3.16422C25.4196 3.22155 25.4161 3.27929 25.4164 3.33708C25.4164 3.62601 25.502 3.90845 25.6626 4.14867C25.8231 4.3889 26.0513 4.57612 26.3182 4.68665C26.5852 4.79718 26.8789 4.82605 27.1623 4.76962C27.4457 4.71319 27.7059 4.57399 27.9102 4.36962C28.1144 4.16526 28.2535 3.90491 28.3097 3.62151C28.366 3.33811 28.337 3.04439 28.2263 2.7775C28.1156 2.51062 27.9282 2.28255 27.6879 2.12215C27.4476 1.96176 27.1651 1.87623 26.8762 1.8764L26.8736 1.87295Z" fill="#BBBBBB"/>
<path d="M27.7032 35C26.898 34.9996 26.1202 34.7079 25.5133 34.1787C24.9064 33.6495 24.5116 32.9186 24.4016 32.121C24.3811 31.9703 24.3708 31.8184 24.3705 31.6664C24.3704 31.2287 24.4565 30.7953 24.6239 30.3909C24.7914 29.9865 25.0368 29.619 25.3463 29.3095C25.6558 29 26.0233 28.7545 26.4277 28.5871C26.8321 28.4196 27.2655 28.3335 27.7032 28.3336C28.5779 28.3477 29.4121 28.7051 30.0257 29.3286C30.6393 29.9522 30.9832 30.792 30.9832 31.6668C30.9832 32.5416 30.6393 33.3814 30.0257 34.005C29.4121 34.6285 28.5779 34.9859 27.7032 35ZM27.7032 30.2066C27.3168 30.2091 26.9469 30.3637 26.6737 30.6369C26.4005 30.9101 26.2459 31.28 26.2434 31.6664C26.2436 31.7337 26.2482 31.801 26.2572 31.8677C26.3059 32.2161 26.4786 32.5352 26.7435 32.7666C27.0085 32.9979 27.348 33.1258 27.6998 33.127C28.0059 33.1275 28.3045 33.0316 28.5532 32.8531C28.8019 32.6745 28.9882 32.4223 29.0856 32.132C29.1831 31.8418 29.1869 31.5282 29.0964 31.2357C29.0059 30.9433 28.8257 30.6866 28.5813 30.5022C28.3279 30.3095 28.0181 30.2056 27.6998 30.2066H27.7032Z" fill="#BBBBBB"/>
<path d="M11.1422 35C10.5755 35.0001 10.018 34.8557 9.52259 34.5805C9.02716 34.3053 8.61008 33.9083 8.31075 33.427C8.01142 32.9457 7.83973 32.3961 7.81191 31.83C7.78408 31.264 7.90103 30.7002 8.15171 30.1919C8.42702 29.6343 8.85266 29.1648 9.38061 28.8363C9.90856 28.5078 10.5178 28.3334 11.1396 28.3328C11.5773 28.3327 12.0107 28.4188 12.4151 28.5862C12.8195 28.7537 13.187 28.9991 13.4965 29.3086C13.806 29.6181 14.0515 29.9856 14.2189 30.39C14.3864 30.7944 14.4725 31.2278 14.4724 31.6655C14.4719 32.549 14.121 33.3962 13.4967 34.0213C12.8724 34.6464 12.0257 34.9984 11.1422 35ZM11.1422 30.2066C10.755 30.2068 10.3838 30.3606 10.1099 30.6343C9.83605 30.908 9.68199 31.2792 9.68153 31.6664C9.6838 32.0531 9.83842 32.4233 10.1119 32.6967C10.3853 32.9702 10.7555 33.1248 11.1422 33.1271C11.4998 33.127 11.845 32.9954 12.1118 32.7573C12.3786 32.5191 12.5485 32.1911 12.589 31.8358C12.5963 31.7784 12.5998 31.7207 12.5994 31.6629C12.596 31.2776 12.4414 30.909 12.1688 30.6366C11.8962 30.3642 11.5276 30.2097 11.1422 30.2066Z" fill="#BBBBBB"/>
<path d="M3.33763 21.1771C2.85823 21.1777 2.38434 21.0749 1.94829 20.8757C1.51224 20.6764 1.12429 20.3855 0.810896 20.0227C0.497508 19.6599 0.266053 19.2338 0.132324 18.7734C-0.00140555 18.313 -0.0342646 17.8292 0.0359872 17.355C0.106239 16.8808 0.277949 16.4273 0.539405 16.0254C0.800861 15.6236 1.14591 15.2829 1.55102 15.0265C1.95613 14.7702 2.41176 14.6042 2.88685 14.54C3.36193 14.4757 3.84528 14.5147 4.30393 14.6542C4.98031 14.8608 5.57412 15.2759 6.00055 15.8401C6.37233 16.3352 6.59893 16.9241 6.65497 17.5407C6.71102 18.1574 6.5943 18.7775 6.31789 19.3316C6.04148 19.8856 5.61629 20.3518 5.08993 20.6779C4.56357 21.004 3.95683 21.1772 3.33763 21.178V21.1771ZM3.33763 16.3837C3.14288 16.379 2.94915 16.4132 2.76784 16.4845C2.58653 16.5557 2.42131 16.6625 2.28189 16.7986C2.14248 16.9347 2.03169 17.0972 1.95604 17.2768C1.8804 17.4563 1.84143 17.6491 1.84143 17.8439C1.84143 18.0388 1.8804 18.2316 1.95604 18.4111C2.03169 18.5906 2.14248 18.7532 2.28189 18.8893C2.42131 19.0253 2.58653 19.1321 2.76784 19.2034C2.94915 19.2747 3.14288 19.3089 3.33763 19.3042C3.38932 19.3041 3.44097 19.3012 3.49234 19.2955C3.85137 19.2592 4.18399 19.0904 4.42529 18.8221C4.66659 18.5538 4.79928 18.2052 4.79745 17.8444C4.79756 17.6526 4.75988 17.4627 4.68657 17.2855C4.61326 17.1082 4.50575 16.9472 4.37018 16.8116C4.23462 16.6759 4.07365 16.5683 3.89648 16.4949C3.71931 16.4215 3.52941 16.3837 3.33763 16.3837Z" fill="#BBBBBB"/>
<path d="M35.5061 21.1772C35.4197 21.1772 35.3333 21.1772 35.239 21.166C34.3802 21.0981 33.581 20.7003 33.0092 20.0559C32.4373 19.4116 32.1371 18.5708 32.1717 17.71C32.2062 16.8492 32.5728 16.0352 33.1944 15.4387C33.8161 14.8423 34.6446 14.5097 35.5061 14.5109C36.3808 14.525 37.215 14.8823 37.8286 15.5059C38.4422 16.1295 38.7861 16.9692 38.7861 17.8441C38.7861 18.7189 38.4422 19.5587 37.8286 20.1822C37.215 20.8058 36.3808 21.1632 35.5061 21.1772ZM35.5061 16.3838C35.3527 16.3838 35.2002 16.4077 35.0541 16.4547C34.733 16.559 34.458 16.7713 34.2759 17.0555C34.0938 17.3398 34.0158 17.6784 34.0552 18.0136C34.0947 18.3489 34.2491 18.6601 34.4922 18.8944C34.7353 19.1286 35.0521 19.2713 35.3886 19.2982C35.4329 19.3023 35.4724 19.3043 35.507 19.3043C35.8881 19.295 36.2505 19.1371 36.5168 18.8643C36.7831 18.5914 36.9321 18.2253 36.9321 17.8441C36.9321 17.4628 36.7831 17.0967 36.5168 16.8238C36.2505 16.551 35.8881 16.3931 35.507 16.3838H35.5061Z" fill="#BBBBBB"/>
<path d="M11.184 32.3621C10.9666 32.2372 10.8073 32.0314 10.7408 31.7896C10.6743 31.5478 10.706 31.2895 10.829 31.0709L26.0292 3.64799C26.1493 3.42786 26.3516 3.2641 26.5919 3.19233C26.8321 3.12056 27.0911 3.1466 27.3123 3.26478C27.5299 3.38961 27.6895 3.59539 27.7561 3.83731C27.8227 4.07924 27.7911 4.33769 27.668 4.55637L12.4679 31.9793C12.3476 32.1996 12.1452 32.3634 11.9048 32.4351C11.6643 32.5068 11.4052 32.4806 11.184 32.3621Z" fill="#BBBBBB"/>
<path d="M2.94972 18.2194C2.7782 18.1097 2.64709 17.947 2.57622 17.7561C2.50535 17.5652 2.49857 17.3564 2.55692 17.1613C2.61527 16.9662 2.73556 16.7954 2.89961 16.6748C3.06365 16.5541 3.26253 16.4902 3.46615 16.4926L35.3923 16.6478C35.5774 16.6491 35.7579 16.7052 35.911 16.8089C36.0642 16.9127 36.1832 17.0595 36.2531 17.2308C36.3229 17.4022 36.3404 17.5903 36.3034 17.7716C36.2664 17.9529 36.1765 18.1192 36.0451 18.2494C35.9582 18.3363 35.8549 18.405 35.7411 18.4515C35.6273 18.498 35.5054 18.5214 35.3825 18.5202L3.45423 18.3698C3.27509 18.3693 3.09991 18.3171 2.94972 18.2194Z" fill="#BBBBBB"/>
<path d="M26.9053 32.2588C26.7222 32.1776 26.5703 32.0395 26.4719 31.8651L10.7469 4.0761C10.6862 3.96903 10.6472 3.85106 10.6322 3.72893C10.6171 3.6068 10.6262 3.4829 10.659 3.36429C10.6918 3.24569 10.7477 3.13472 10.8234 3.0377C10.8991 2.94068 10.9932 2.85953 11.1003 2.79887C11.2073 2.73821 11.3253 2.69923 11.4474 2.68416C11.5696 2.66909 11.6935 2.67822 11.8121 2.71104C11.9307 2.74385 12.0416 2.79971 12.1387 2.87541C12.2357 2.95112 12.3168 3.04519 12.3775 3.15226L28.1025 30.9413C28.2001 31.1129 28.241 31.311 28.2192 31.5073C28.1975 31.7036 28.1143 31.8879 27.9815 32.0341C27.8487 32.1802 27.6731 32.2806 27.4798 32.321C27.2865 32.3613 27.0854 32.3396 26.9053 32.2588Z" fill="#BBBBBB"/>
<path d="M19.4214 29.1607C17.2814 29.1599 15.1825 28.5725 13.353 27.4623C11.5234 26.3522 10.0331 24.7618 9.04415 22.864C8.05515 20.9662 7.60527 18.8336 7.74341 16.698C7.88154 14.5625 8.60241 12.5056 9.82766 10.7511C11.1666 8.83463 13.0482 7.36245 15.2304 6.52375C15.3373 6.48194 15.451 6.46054 15.5658 6.46066C15.7863 6.45836 16.0006 6.53395 16.1709 6.6741C16.3412 6.81426 16.4566 7.01 16.4968 7.22686C16.5369 7.44372 16.4993 7.66781 16.3905 7.85966C16.2817 8.05152 16.1087 8.19884 15.902 8.27569C14.0495 8.99544 12.4568 10.2565 11.3314 11.8945C10.206 13.5325 9.60006 15.4716 9.59258 17.4589C9.59312 19.1933 10.0524 20.8968 10.9239 22.3963C11.7954 23.8959 13.0481 25.1383 14.5548 25.9973C16.0616 26.8564 17.7687 27.3017 19.5031 27.2879C21.2375 27.2741 22.9373 26.8017 24.4302 25.9188C25.9231 25.0359 27.1558 23.7738 28.0034 22.2605C28.8509 20.7473 29.2831 19.0368 29.256 17.3025C29.229 15.5683 28.7437 13.8721 27.8494 12.3861C26.955 10.9 25.6835 9.67691 24.1639 8.84095C24.056 8.78147 23.961 8.70134 23.8841 8.60513C23.8073 8.50892 23.7501 8.39851 23.7159 8.28021C23.6817 8.16191 23.6712 8.03803 23.6849 7.91565C23.6985 7.79328 23.7362 7.67479 23.7957 7.56696C23.8552 7.45914 23.9353 7.36408 24.0315 7.28722C24.1277 7.21036 24.2381 7.15321 24.3564 7.11902C24.4747 7.08483 24.5986 7.07427 24.721 7.08795C24.8433 7.10164 24.9618 7.13929 25.0697 7.19877C27.3469 8.45015 29.143 10.4237 30.175 12.8084C31.207 15.193 31.4161 17.8533 30.7695 20.37C30.1229 22.8866 28.6573 25.1166 26.6037 26.7085C24.55 28.3004 22.025 29.1638 19.4266 29.1625L19.4214 29.1607ZM20.157 7.64648H20.093C19.8451 7.62985 19.614 7.51542 19.4504 7.32838C19.2869 7.14133 19.2043 6.89698 19.2209 6.64907C19.2389 6.40184 19.3536 6.17165 19.5401 6.00841C19.7267 5.84516 19.97 5.76201 20.2175 5.77699C20.4587 5.79488 20.6836 5.90536 20.8452 6.08531C21.0068 6.26526 21.0926 6.50073 21.0846 6.74247C21.0765 6.9842 20.9753 7.21347 20.8021 7.38228C20.6289 7.5511 20.3971 7.64639 20.1552 7.64821L20.157 7.64648Z" fill="#BBBBBB"/>
</svg>
