<svg width="25" height="26" viewBox="0 0 25 26" fill="none" xmlns="http://www.w3.org/2000/svg">
<path d="M17.4325 0L7.57246 0C7.02961 0 6.58547 0.440346 6.58547 0.978547L6.58547 10.764H0.989245C0.604319 10.764 0.253938 10.9891 0.0910853 11.3365C-0.0717679 11.6839 -0.0125489 12.09 0.239133 12.3835L11.7524 25.6575C11.9399 25.8728 12.2113 26 12.5025 26C12.7936 26 13.0651 25.8777 13.2526 25.6575L24.7609 12.3786C25.0125 12.09 25.0718 11.679 24.9089 11.3316C24.751 10.9891 24.4006 10.764 24.0157 10.764L18.4195 10.764V0.978547C18.4195 0.440346 17.9753 0 17.4325 0Z" fill="white"/>
</svg>
