<svg width="25" height="28" viewBox="0 0 25 28" fill="none" xmlns="http://www.w3.org/2000/svg">
<path d="M21.6924 27.2691H2.391C1.85601 27.2709 1.33757 27.0835 0.927155 26.7401C0.516737 26.3967 0.24071 25.9192 0.147772 25.3919C-0.206584 23.5865 0.080988 21.714 0.960708 20.0984C1.84043 18.4828 3.25692 17.2259 4.96498 16.5452C7.18225 15.7495 9.52459 15.36 11.8798 15.3952H11.9957H12.0904H12.2064C14.5825 15.3558 16.9457 15.7543 19.1777 16.5707C20.8726 17.2573 22.2749 18.5144 23.1427 20.125C24.0105 21.7357 24.2894 23.5989 23.9313 25.3934C23.8398 25.9204 23.5647 26.3979 23.1549 26.7413C22.745 27.0846 22.2269 27.2716 21.6924 27.2691ZM2.86028 24.4527H21.2231C21.3392 23.3573 21.1004 22.2536 20.5421 21.3043C19.9837 20.3551 19.1352 19.6105 18.1219 19.1806C16.202 18.5054 14.1774 18.1773 12.1427 18.2116H12.0579H11.9943C9.96493 18.1733 7.9447 18.4937 6.02652 19.1579C5.00032 19.5828 4.13821 20.3273 3.56791 21.281C2.99762 22.2346 2.74948 23.3468 2.86028 24.4527Z" fill="white"/>
<path d="M12.0424 13.2139C10.7542 13.2139 9.49485 12.8316 8.42373 12.1154C7.3526 11.3991 6.51776 10.3811 6.02478 9.19002C5.53179 7.99895 5.4028 6.68833 5.65412 5.4239C5.90545 4.15946 6.52579 2.998 7.43671 2.0864C8.34762 1.17479 9.5082 0.553979 10.7717 0.302467C12.0352 0.050955 13.3448 0.180039 14.535 0.673398C15.7251 1.16676 16.7424 2.00223 17.4581 3.07416C18.1738 4.1461 18.5558 5.40636 18.5558 6.69556C18.5539 8.42376 17.8671 10.0806 16.646 11.3027C15.4249 12.5247 13.7693 13.212 12.0424 13.2139ZM12.0424 2.99363C11.3108 2.99363 10.5956 3.21074 9.98726 3.61752C9.37894 4.02429 8.90481 4.60245 8.62483 5.27889C8.34485 5.95533 8.2716 6.69967 8.41433 7.41777C8.55706 8.13588 8.90937 8.7955 9.4267 9.31322C9.94404 9.83095 10.6032 10.1835 11.3207 10.3264C12.0383 10.4692 12.7821 10.3959 13.458 10.1157C14.1339 9.83551 14.7116 9.36102 15.1181 8.75224C15.5246 8.14346 15.7415 7.42774 15.7415 6.69556C15.7419 5.71311 15.3525 4.77071 14.6588 4.07548C13.9652 3.38026 13.0241 2.9891 12.0424 2.98797V2.99363Z" fill="white"/>
</svg>
