<svg width="26" height="27" viewBox="0 0 26 27" fill="none" xmlns="http://www.w3.org/2000/svg">
<path d="M19.1511 14.822C18.5988 14.822 18.1511 15.2697 18.1511 15.822L18.1511 25.9838C18.1511 25.9839 18.1511 25.9841 18.1511 25.9841C18.1507 25.985 18.1493 25.9876 18.146 25.9908C18.1426 25.9942 18.1388 25.9966 18.1355 25.998C18.1329 25.9991 18.1298 26 18.1246 26L7.87022 26C7.86511 26 7.862 25.9991 7.85935 25.998C7.85603 25.9966 7.85223 25.9942 7.84882 25.9908C7.84556 25.9876 7.84415 25.985 7.84376 25.9841C7.84376 25.984 7.84375 25.9839 7.84375 25.9838L7.84375 15.822C7.84375 15.2697 7.39604 14.822 6.84375 14.822L1.02368 14.822C1.01888 14.822 1.0132 14.8206 1.00758 14.817C1.00435 14.815 1.00281 14.8133 1.00228 14.8126L0.999999 14.8078C0.999999 14.8076 1.00001 14.8073 1.00006 14.807C1.00028 14.8055 1.00082 14.8043 1.00197 14.803L1.00391 14.8008L12.9725 1.01114L12.9726 1.01117L12.9781 1.00463C12.9792 1.00343 12.9797 1.00304 12.9797 1.00301L12.9806 1.00253C12.9814 1.00217 12.9864 0.999999 12.9974 0.999999C13.0027 0.999999 13.0068 1.00101 13.0107 1.00279C13.0147 1.00466 13.0193 1.0078 13.0237 1.01276C13.0238 1.01286 13.0239 1.01295 13.024 1.01305L24.9926 14.7916C24.9928 14.7919 24.9931 14.7922 24.9933 14.7925C24.9965 14.7964 24.9981 14.7993 24.9989 14.8011C24.9993 14.802 24.9996 14.8027 24.9997 14.8032C24.9973 14.8082 24.9931 14.8131 24.9871 14.8169C24.9809 14.8208 24.9756 14.822 24.9712 14.822L19.1511 14.822Z" stroke="white" stroke-width="2" stroke-linecap="round" stroke-linejoin="round"/>
</svg>
