<svg width="17" height="17" viewBox="0 0 17 17" fill="none" xmlns="http://www.w3.org/2000/svg">
<path d="M16.0017 5.69102C16.1938 5.49995 16.3142 5.24843 16.3423 4.97892C16.3705 4.70942 16.3049 4.43844 16.1564 4.21174C16.008 3.98504 15.7859 3.81649 15.5276 3.73456C15.2693 3.65263 14.9907 3.66233 14.7387 3.76202L12.9327 1.95702C12.9953 1.80009 13.0233 1.63153 13.0148 1.46279C13.0064 1.29406 12.9617 1.12913 12.8838 0.979224C12.8059 0.829317 12.6966 0.697956 12.5634 0.594081C12.4302 0.490206 12.2761 0.416255 12.1117 0.377265C11.9473 0.338276 11.7765 0.335164 11.6108 0.368137C11.4451 0.401109 11.2885 0.469394 11.1515 0.568343C11.0146 0.667293 10.9006 0.794583 10.8173 0.94155C10.734 1.08852 10.6833 1.25171 10.6687 1.42002L8.7087 2.07402C8.6947 2.05902 8.6847 2.04203 8.6707 2.02803C8.56112 1.9187 8.43107 1.83203 8.28798 1.77296C8.1449 1.7139 7.99158 1.68359 7.83679 1.68378C7.68199 1.68396 7.52875 1.71464 7.38581 1.77405C7.24287 1.83346 7.11303 1.92044 7.00371 2.03002C6.89438 2.13961 6.80771 2.26966 6.74864 2.41275C6.68958 2.55583 6.65927 2.70915 6.65946 2.86394C6.65964 3.01874 6.69032 3.17198 6.74973 3.31492C6.80914 3.45786 6.89612 3.5877 7.0057 3.69702C7.0197 3.71102 7.03671 3.72102 7.05171 3.73502L6.3977 5.69503C6.12359 5.7166 5.86618 5.83533 5.67185 6.02985C5.47751 6.22437 5.35902 6.48189 5.3377 6.75602L3.3777 7.40903C3.3637 7.39403 3.3537 7.37702 3.3397 7.36302C3.23031 7.25363 3.10045 7.16686 2.95752 7.10766C2.81459 7.04846 2.66141 7.01799 2.5067 7.01799C2.352 7.01799 2.19881 7.04846 2.05589 7.10766C1.91296 7.16686 1.78309 7.25363 1.6737 7.36302C1.56431 7.47242 1.47754 7.60228 1.41834 7.74521C1.35913 7.88813 1.32866 8.04132 1.32866 8.19602C1.32866 8.35073 1.35913 8.50392 1.41834 8.64684C1.47754 8.78977 1.56431 8.91963 1.6737 9.02903C1.6877 9.04303 1.7047 9.05302 1.7197 9.06702L1.0667 11.025C0.899206 11.0405 0.736988 11.0918 0.59102 11.1754C0.445051 11.259 0.318735 11.373 0.220612 11.5096C0.12249 11.6463 0.0548474 11.8024 0.0222597 11.9674C-0.010328 12.1324 -0.00710183 12.3025 0.0317201 12.4662C0.0705421 12.6299 0.144056 12.7833 0.247289 12.9161C0.350522 13.0489 0.481068 13.158 0.630101 13.236C0.779134 13.314 0.943179 13.3591 1.11115 13.3683C1.27911 13.3774 1.44708 13.3504 1.6037 13.289L3.4107 15.096C3.34814 15.253 3.32012 15.4215 3.32856 15.5903C3.33699 15.759 3.38169 15.9239 3.45959 16.0738C3.5375 16.2237 3.64678 16.3551 3.78002 16.459C3.91325 16.5628 4.06731 16.6368 4.23169 16.6758C4.39607 16.7148 4.56692 16.7179 4.73261 16.6849C4.8983 16.6519 5.05495 16.5837 5.19188 16.4847C5.32881 16.3858 5.44281 16.2585 5.52613 16.1115C5.60945 15.9645 5.66012 15.8013 5.6747 15.633L7.6347 14.98C7.6487 14.995 7.6587 15.012 7.6727 15.026C7.89363 15.2469 8.19327 15.3711 8.5057 15.3711C8.81814 15.3711 9.11778 15.2469 9.3387 15.026C9.55963 14.8051 9.68374 14.5055 9.68374 14.193C9.68374 13.8806 9.55963 13.5809 9.3387 13.36C9.3247 13.346 9.3077 13.336 9.2927 13.322L9.9457 11.362C10.2197 11.3405 10.4769 11.2219 10.6713 11.0276C10.8656 10.8333 10.9842 10.576 11.0057 10.302L12.9657 9.64902C12.9797 9.66402 12.9897 9.68103 13.0037 9.69503C13.1131 9.80442 13.243 9.89119 13.3859 9.95039C13.5288 10.0096 13.682 10.0401 13.8367 10.0401C13.9914 10.0401 14.1446 10.0096 14.2875 9.95039C14.4304 9.89119 14.5603 9.80442 14.6697 9.69503C14.7791 9.58563 14.8659 9.45577 14.9251 9.31284C14.9843 9.16992 15.0147 9.01673 15.0147 8.86203C15.0147 8.70732 14.9843 8.55413 14.9251 8.41121C14.8659 8.26828 14.7791 8.13842 14.6697 8.02903C14.6547 8.01403 14.6387 8.00402 14.6237 7.99102L15.2767 6.03102C15.5508 6.00624 15.8074 5.88589 16.0017 5.69102ZM12.2667 2.62202L14.0737 4.42902C13.99 4.64216 13.9704 4.87508 14.0171 5.09923C14.0638 5.32339 14.1749 5.52905 14.3367 5.69102C14.3507 5.70602 14.3677 5.71503 14.3827 5.72903L13.7297 7.68902C13.4557 7.71056 13.1985 7.82916 13.0042 8.02347C12.8098 8.21779 12.6912 8.47507 12.6697 8.74902L10.7097 9.40203C10.6957 9.38703 10.6857 9.37002 10.6717 9.35602C10.5097 9.19418 10.3041 9.0831 10.0799 9.03639C9.85576 8.98967 9.62284 9.00936 9.4097 9.09302L7.6027 7.28603C7.6865 7.07291 7.70625 6.83996 7.65953 6.61578C7.61281 6.3916 7.50165 6.18593 7.3397 6.02402C7.3257 6.01002 7.3087 6.00003 7.2937 5.98603L7.94771 4.02602C8.22166 4.00448 8.47894 3.88589 8.67325 3.69158C8.86757 3.49726 8.98616 3.23998 9.0077 2.96603L10.9677 2.31203C10.9817 2.32703 10.9917 2.34402 11.0057 2.35802C11.1675 2.51984 11.3729 2.63099 11.5969 2.67787C11.8208 2.72476 12.0536 2.70535 12.2667 2.62202ZM4.0787 14.422L2.2717 12.617C2.35537 12.4039 2.37505 12.171 2.32834 11.9468C2.28163 11.7227 2.17054 11.517 2.0087 11.355C1.9947 11.341 1.9777 11.331 1.9627 11.317L2.6167 9.35702C2.89066 9.33549 3.14794 9.21689 3.34226 9.02257C3.53657 8.82826 3.65517 8.57098 3.67671 8.29702L5.6367 7.64402C5.6507 7.65902 5.6597 7.67602 5.6747 7.69002C5.83668 7.85186 6.04234 7.96294 6.2665 8.00966C6.49065 8.05637 6.72357 8.03669 6.9367 7.95302L8.74671 9.75902C8.66291 9.97214 8.64316 10.2051 8.68988 10.4293C8.7366 10.6535 8.84775 10.8591 9.0097 11.021C9.0247 11.036 9.0417 11.046 9.0557 11.059L8.4017 13.019C8.12775 13.0406 7.87047 13.1592 7.67615 13.3535C7.48184 13.5478 7.36324 13.8051 7.3417 14.079L5.3817 14.732C5.3677 14.717 5.35771 14.7 5.34371 14.686C5.18121 14.5237 4.97479 14.4124 4.74986 14.3658C4.52492 14.3193 4.29129 14.3395 4.0777 14.424L4.0787 14.422Z" fill="white"/>
</svg>
