<svg width="18" height="18" viewBox="0 0 18 18" fill="none" xmlns="http://www.w3.org/2000/svg">
<path d="M5.22412 7.31578C5.29014 7.29297 5.35094 7.25719 5.40293 7.21054C5.45493 7.1639 5.49707 7.10733 5.52688 7.04416C5.5567 6.98099 5.57358 6.9125 5.57654 6.84271C5.5795 6.77292 5.56848 6.70324 5.54412 6.63778V6.61978C5.37484 6.19443 5.28534 5.74154 5.28012 5.28378C5.32934 4.82481 5.45685 4.37767 5.65712 3.96178C5.75112 3.71678 5.88312 3.45378 5.97712 3.18978C6.11088 2.86262 6.18733 2.51487 6.20312 2.16178C6.21912 1.79787 6.16794 1.43413 6.05212 1.08878C5.99607 0.923234 5.92018 0.765083 5.82612 0.617776C5.72698 0.457198 5.61352 0.305915 5.48712 0.165777C5.42912 0.10101 5.35491 0.0528772 5.27212 0.0263358C5.18933 -0.000205673 5.10096 -0.00419578 5.01612 0.0147765C4.95199 0.0294021 4.89138 0.0565375 4.83775 0.0946282C4.78413 0.132719 4.73854 0.181016 4.70361 0.236753C4.66869 0.29249 4.6451 0.35457 4.6342 0.419438C4.62331 0.484306 4.62532 0.550687 4.64012 0.614777L4.67812 0.802777C4.69712 0.858777 4.73412 0.990777 4.77212 1.08478C4.79989 1.18965 4.81862 1.29671 4.82812 1.40478C4.85012 1.60467 4.84372 1.80667 4.80912 2.00478C4.77414 2.20988 4.70412 2.40743 4.60212 2.58878L4.24412 3.36078C4.11906 3.65183 4.0187 3.95289 3.94412 4.26078C3.86541 4.60627 3.83379 4.96081 3.85012 5.31478C3.91954 5.99663 4.19551 6.64103 4.64112 7.16178C4.71377 7.23998 4.80711 7.29597 4.91031 7.32323C5.01351 7.35049 5.12233 7.34791 5.22412 7.31578Z" fill="white"/>
<path d="M8.72528 7.31579C8.7913 7.29298 8.8521 7.2572 8.90409 7.21055C8.95609 7.16391 8.99823 7.10734 9.02804 7.04417C9.05786 6.981 9.07474 6.91251 9.0777 6.84272C9.08066 6.77293 9.06964 6.70325 9.04528 6.63779L9.02628 6.61879C8.857 6.19344 8.7675 5.74055 8.76228 5.28279C8.81161 4.82416 8.93912 4.37737 9.13928 3.96179C9.23328 3.71679 9.36528 3.45379 9.45928 3.18979C9.59304 2.86263 9.66949 2.51488 9.68528 2.16179C9.70166 1.79688 9.65046 1.43209 9.53428 1.08579C9.47822 0.920243 9.40234 0.762093 9.30828 0.614786C9.20913 0.454208 9.09567 0.302925 8.96928 0.162786C8.91128 0.0980196 8.83706 0.0498865 8.75428 0.0233451C8.67149 -0.0031964 8.58312 -0.0071865 8.49828 0.0117858C8.43415 0.0264113 8.37353 0.0535468 8.31991 0.0916374C8.26628 0.129728 8.2207 0.178025 8.18577 0.233762C8.15084 0.289499 8.12726 0.35158 8.11636 0.416448C8.10546 0.481316 8.10747 0.547696 8.12228 0.611786L8.16028 0.799786C8.17928 0.855786 8.21628 0.987786 8.25428 1.08179C8.28204 1.18666 8.30078 1.29372 8.31028 1.40179C8.33228 1.60168 8.32588 1.80368 8.29128 2.00179C8.25632 2.20689 8.1863 2.40445 8.08428 2.58579L7.72628 3.35779C7.60255 3.65144 7.49571 3.95193 7.40628 4.25779C7.32757 4.60327 7.29595 4.95782 7.31228 5.31179C7.3784 5.98822 7.65506 6.62687 8.10328 7.13779C8.18032 7.22212 8.27926 7.28342 8.38908 7.31485C8.4989 7.34628 8.61528 7.3466 8.72528 7.31579Z" fill="white"/>
<path d="M12.2271 7.31578C12.2931 7.29297 12.3539 7.25719 12.4059 7.21054C12.4579 7.1639 12.5001 7.10733 12.5299 7.04416C12.5597 6.98099 12.5766 6.9125 12.5795 6.84271C12.5825 6.77292 12.5715 6.70324 12.5471 6.63778V6.61978C12.3778 6.19443 12.2883 5.74154 12.2831 5.28378C12.3323 4.82481 12.4598 4.37767 12.6601 3.96178C12.7541 3.71678 12.8861 3.45378 12.9801 3.18978C13.1135 2.86255 13.1896 2.51481 13.2051 2.16178C13.2393 1.79877 13.1943 1.43268 13.0731 1.08878C13.0171 0.923234 12.9412 0.765083 12.8471 0.617776C12.748 0.457201 12.6345 0.305919 12.5081 0.165777C12.4501 0.10101 12.3759 0.0528772 12.2931 0.0263358C12.2103 -0.000205673 12.122 -0.00419578 12.0371 0.0147765C11.973 0.0294021 11.9124 0.0565375 11.8587 0.0946282C11.8051 0.132719 11.7595 0.181016 11.7246 0.236753C11.6897 0.29249 11.6661 0.35457 11.6552 0.419438C11.6443 0.484306 11.6463 0.550687 11.6611 0.614777L11.6991 0.802777C11.7181 0.858777 11.7551 0.990777 11.7931 1.08478C11.8209 1.18965 11.8396 1.29671 11.8491 1.40478C11.8711 1.60467 11.8647 1.80667 11.8301 2.00478C11.7951 2.20988 11.7251 2.40743 11.6231 2.58878L11.2651 3.36078C11.1401 3.65183 11.0397 3.95289 10.9651 4.26078C10.8864 4.60627 10.8548 4.96081 10.8711 5.31478C10.9405 5.99663 11.2165 6.64103 11.6621 7.16178C11.7302 7.24089 11.8204 7.29783 11.921 7.32527C12.0217 7.35271 12.1283 7.34941 12.2271 7.31578Z" fill="white"/>
<path d="M16.4992 7.27778C16.327 7.25069 16.1511 7.29294 16.0099 7.39527C15.8688 7.4976 15.774 7.65169 15.7462 7.82379L15.5012 9.44278C15.04 9.45113 14.5927 9.60243 14.2212 9.87578L13.7692 10.2518C13.6056 10.3445 13.4207 10.3933 13.2327 10.3933C13.0446 10.3933 12.8598 10.3445 12.6962 10.2518L12.1882 9.83779C11.8003 9.56065 11.3348 9.41325 10.8581 9.41666C10.3814 9.42007 9.91804 9.57412 9.53419 9.85678L9.08219 10.2328C8.92357 10.328 8.74271 10.3799 8.55773 10.3832C8.37275 10.3865 8.19014 10.3412 8.02819 10.2518L7.52019 9.83779C7.13234 9.56065 6.66679 9.41325 6.19011 9.41666C5.71343 9.42007 5.25004 9.57412 4.86619 9.85678L4.41419 10.2328C4.2556 10.3281 4.07473 10.38 3.88973 10.3834C3.70474 10.3867 3.52211 10.3413 3.36019 10.2518L2.85219 9.83779C2.47632 9.5753 2.03058 9.43113 1.57219 9.42378L1.30819 7.80478C1.28074 7.63239 1.18593 7.47797 1.04463 7.37548C0.903316 7.27299 0.727082 7.23083 0.554691 7.25828C0.3823 7.28573 0.227875 7.38054 0.125387 7.52185C0.0228979 7.66316 -0.0192585 7.83939 0.00819138 8.01178L1.51419 17.3118C1.53827 17.4641 1.61599 17.6029 1.73334 17.703C1.85069 17.8031 1.99994 17.858 2.15419 17.8578H14.8992C15.0542 17.861 15.205 17.8071 15.323 17.7065C15.441 17.6058 15.5179 17.4654 15.5392 17.3118L17.0452 8.01178C17.069 7.84222 17.025 7.6701 16.9228 7.53272C16.8207 7.39533 16.6684 7.30374 16.4992 7.27778ZM14.3532 16.5578H2.72119L1.79919 10.7788C1.88582 10.7952 1.9688 10.8271 2.04419 10.8728L2.55219 11.2868C2.94182 11.5595 3.40666 11.7042 3.88222 11.7007C4.35779 11.6973 4.8205 11.546 5.20619 11.2678L5.67719 10.8918C5.83069 10.7832 6.0133 10.7234 6.20127 10.72C6.38923 10.7166 6.57388 10.7698 6.73119 10.8728L7.23919 11.2868C7.62882 11.5595 8.09366 11.7042 8.56922 11.7007C9.04479 11.6973 9.5075 11.546 9.89319 11.2678L10.3642 10.8918C10.5177 10.7832 10.7003 10.7234 10.8883 10.72C11.0762 10.7166 11.2609 10.7698 11.4182 10.8728L11.9262 11.2868C12.3067 11.555 12.7606 11.6995 13.2262 11.7008C13.7111 11.696 14.1834 11.5451 14.5812 11.2678L15.0452 10.8938C15.1279 10.8449 15.2167 10.8069 15.3092 10.7808L14.3532 16.5578Z" fill="white"/>
</svg>
